<?xml version="1.0" encoding="utf-8"?>
<!-- Generator: Adobe Illustrator 23.0.6, SVG Export Plug-In . SVG Version: 6.00 Build 0)  -->
<svg version="1.1" xmlns="http://www.w3.org/2000/svg" xmlns:xlink="http://www.w3.org/1999/xlink" x="0px" y="0px"
	 viewBox="0 0 424 424" style="enable-background:new 0 0 424 424;" xml:space="preserve">
<g id="Laag_2">
</g>
<g id="Laag_1">
	<g>
		<defs>
			<path id="SVGID_1_" d="M377,399.1H47c-25.9,0-47-21.1-47-47V72c0-25.9,21.1-47,47-47h330c25.9,0,47,21.1,47,47v280.1
				C424,378,402.9,399.1,377,399.1z M47,39c-18.2,0-33,14.8-33,33v280.1c0,18.2,14.8,33,33,33h330c18.2,0,33-14.8,33-33V72
				c0-18.2-14.8-33-33-33H47z M417,137.1H7c-3.9,0-7-3.1-7-7c0-3.9,3.1-7,7-7h410c3.9,0,7,3.1,7,7C424,134,420.9,137.1,417,137.1z
				 M117.7,103.6c-12.2,0-22.2-9.9-22.2-22.2c0-12.2,9.9-22.2,22.2-22.2c12.2,0,22.2,9.9,22.2,22.2
				C139.8,93.7,129.9,103.6,117.7,103.6z M117.7,73.3c-4.5,0-8.2,3.7-8.2,8.2s3.7,8.2,8.2,8.2c4.5,0,8.2-3.7,8.2-8.2
				S122.2,73.3,117.7,73.3z M49.6,103.4c-12.2,0-22.2-9.9-22.2-22.2s9.9-22.2,22.2-22.2s22.2,9.9,22.2,22.2S61.8,103.4,49.6,103.4z
				 M49.6,73.1c-4.5,0-8.2,3.7-8.2,8.2c0,4.5,3.7,8.2,8.2,8.2c4.5,0,8.2-3.7,8.2-8.2C57.8,76.8,54.1,73.1,49.6,73.1z M185.7,103.9
				c-12.2,0-22.1-9.9-22.1-22.2c0-12.2,9.9-22.1,22.1-22.1c12.2,0,22.2,9.9,22.2,22.1C207.9,93.9,197.9,103.9,185.7,103.9z
				 M185.7,73.6c-4.5,0-8.1,3.7-8.1,8.2s3.7,8.2,8.1,8.2c4.5,0,8.2-3.7,8.2-8.2S190.2,73.6,185.7,73.6z M163,293.1
				c-1.6,0-3.2-0.6-4.5-1.7l-45.3-38.6c-1.6-1.3-2.5-3.3-2.5-5.3c0-2.1,0.9-4,2.5-5.3l45.3-38.6c2.9-2.5,7.4-2.2,9.9,0.8
				c2.5,2.9,2.2,7.4-0.8,9.9l-39,33.2l39,33.2c2.9,2.5,3.3,6.9,0.8,9.9C166.9,292.3,165,293.1,163,293.1z M252.4,293.1
				c-2,0-3.9-0.8-5.3-2.5c-2.5-2.9-2.2-7.4,0.8-9.9l39-33.2l-39-33.2c-2.9-2.5-3.3-6.9-0.8-9.9c2.5-2.9,6.9-3.3,9.9-0.8l45.3,38.6
				c1.6,1.3,2.5,3.3,2.5,5.3c0,2.1-0.9,4-2.5,5.3L257,291.4C255.6,292.6,254,293.1,252.4,293.1z M191.7,322c-0.5,0-1-0.1-1.5-0.2
				c-3.8-0.8-6.2-4.5-5.4-8.3l28.2-134c0.8-3.8,4.5-6.2,8.3-5.4c3.8,0.8,6.2,4.5,5.4,8.3l-28.2,134C197.8,319.8,194.9,322,191.7,322
				z"/>
		</defs>
		<clipPath id="SVGID_2_">
			<use xlink:href="#SVGID_1_"  style="overflow:visible;"/>
		</clipPath>
		<g transform="matrix(1 0 0 1 0 0)" style="clip-path:url(#SVGID_2_);">
			
				<image style="overflow:visible;" width="1920" height="1080" xlink:href="Background.png"  transform="matrix(0.2208 0 0 0.3926 0 0)">
			</image>
		</g>
	</g>
</g>
</svg>
